<svg width="22" height="21" viewBox="0 0 22 21" fill="none" xmlns="http://www.w3.org/2000/svg">
<g id="minimize">
<path id="Vector" d="M3.25119 14H5.89667C6.36442 14 6.81301 14.1844 7.14376 14.5126C7.47451 14.8408 7.66032 15.2859 7.66032 15.75V18.375M7.66032 2.625V5.25C7.66032 5.71413 7.47451 6.15925 7.14376 6.48744C6.81301 6.81563 6.36442 7 5.89667 7H3.25119L7.66032 2.625ZM19.1241 7H16.4786C16.0108 7 15.5622 6.81563 15.2315 6.48744C14.9007 6.15925 14.7149 5.71413 14.7149 5.25V2.625L19.1241 7ZM14.7149 18.375V15.75C14.7149 15.2859 14.9007 14.8408 15.2315 14.5126C15.5622 14.1844 16.0108 14 16.4786 14H19.1241L14.7149 18.375Z" stroke="#338573" stroke-width="2" stroke-linecap="round" stroke-linejoin="round"/>
</g>
</svg>
